# xmcd
#
# Track frame offsets:
#	150
#	13228
#	24147
#	37100
#	52115
#	66656
#	81476
#	95390
#	106058
#	118189
#	133538
#	149305
#	163164
#	176758
#	191578
#	215495
#	228532
#	243352
#	256319
#
# Disc length: 3586 seconds
#
# Revision: 0
# Processed by: cddbd v1.4PL0 Copyright (c) Steve Scherf et al.
# Submitted via: dBpowerAMP V4.0
#
DISCID=190e0013
DTITLE=Johnny Marks - The very best 1
DYEAR=1900
DGENRE=
TTITLE0=Darling, true love never die
TTITLE1=Gate of love
TTITLE2=Teardrops
TTITLE3=Crying
TTITLE4=Beound the moon
TTITLE5=Close to my heart
TTITLE6=Fouls and loosers
TTITLE7=My old guitar
TTITLE8=How much is the buspay to heaven
TTITLE9=Baby blue
TTITLE10=You'r love
TTITLE11=I leave this world behind
TTITLE12=If you leave me for another
TTITLE13=Coat of manny collours
TTITLE14=Bill Faxton
TTITLE15=Little boy lost
TTITLE16=Sunnyside of love
TTITLE17=Nock at my window
TTITLE18=Marina
EXTD=
EXTT0=
EXTT1=
EXTT2=
EXTT3=
EXTT4=
EXTT5=
EXTT6=
EXTT7=
EXTT8=
EXTT9=
EXTT10=
EXTT11=
EXTT12=
EXTT13=
EXTT14=
EXTT15=
EXTT16=
EXTT17=
EXTT18=
PLAYORDER=
